<svg xmlns="http://www.w3.org/2000/svg" xmlns:xlink="http://www.w3.org/1999/xlink" width="500" zoomAndPan="magnify" viewBox="0 0 375 374.999991" height="500" preserveAspectRatio="xMidYMid meet" version="1.0"><defs><g/><clipPath id="94b13b3d2b"><path d="M 145 126.90625 L 183 126.90625 L 183 183 L 145 183 Z M 145 126.90625 " clip-rule="nonzero"/></clipPath><clipPath id="b9f16caef5"><path d="M 192 126.90625 L 230 126.90625 L 230 183 L 192 183 Z M 192 126.90625 " clip-rule="nonzero"/></clipPath><clipPath id="bccc4322b6"><path d="M 132.414062 144.175781 L 174.21875 144.175781 L 174.21875 200.203125 L 132.414062 200.203125 Z M 132.414062 144.175781 " clip-rule="nonzero"/></clipPath><clipPath id="1e6e6620d8"><path d="M 200.757812 144.175781 L 242.585938 144.175781 L 242.585938 200.203125 L 200.757812 200.203125 Z M 200.757812 144.175781 " clip-rule="nonzero"/></clipPath></defs><g clip-path="url(#94b13b3d2b)"><path fill="#fbee0f" d="M 166.769531 179.882812 C 170.75 179.882812 176.4375 180.390625 182.261719 182.609375 C 178.882812 180.761719 172.4375 178.015625 163.914062 178.015625 C 162.8125 178.015625 161.695312 178.0625 160.589844 178.152344 L 160.386719 178.167969 L 148.863281 130.023438 L 149.109375 129.976562 C 151.839844 129.445312 154.605469 129.175781 157.324219 129.175781 C 169.15625 129.175781 178.007812 134.273438 182.191406 137.269531 C 172.769531 128.320312 159.621094 126.90625 152.261719 126.90625 C 149.039062 126.90625 146.707031 127.175781 145.957031 127.273438 L 158.183594 180.679688 C 159.0625 180.496094 162.339844 179.882812 166.769531 179.882812 " fill-opacity="1" fill-rule="nonzero"/></g><g clip-path="url(#b9f16caef5)"><path fill="#fbee0f" d="M 208.230469 179.882812 C 204.25 179.882812 198.566406 180.390625 192.738281 182.609375 C 196.117188 180.761719 202.566406 178.015625 211.085938 178.015625 C 212.1875 178.015625 213.304688 178.0625 214.410156 178.152344 L 214.617188 178.167969 L 226.140625 130.023438 L 225.894531 129.976562 C 223.160156 129.445312 220.394531 129.175781 217.679688 129.175781 C 205.84375 129.175781 196.992188 134.273438 192.808594 137.269531 C 202.234375 128.320312 215.382812 126.90625 222.738281 126.90625 C 225.960938 126.90625 228.296875 127.175781 229.042969 127.273438 L 216.816406 180.679688 C 215.9375 180.496094 212.664062 179.882812 208.230469 179.882812 " fill-opacity="1" fill-rule="nonzero"/></g><path fill="#653289" d="M 153.574219 186.546875 C 159.074219 184.410156 164.773438 183.328125 170.519531 183.328125 C 174.226562 183.328125 177.328125 183.789062 179.554688 184.269531 C 175.804688 182.992188 171.523438 182.347656 166.78125 182.347656 C 160.632812 182.347656 155.929688 183.472656 155.882812 183.484375 L 155.652344 183.539062 L 155.59375 183.308594 L 143.742188 136.128906 L 143.980469 136.074219 C 144.859375 135.871094 146.039062 135.707031 147.078125 135.566406 L 147.355469 135.527344 L 146.761719 132.9375 C 143.878906 133.078125 141.5 133.382812 140.734375 133.488281 L 153.574219 186.546875 " fill-opacity="1" fill-rule="nonzero"/><path fill="#653289" d="M 221.425781 186.546875 C 215.929688 184.410156 210.230469 183.328125 204.484375 183.328125 C 200.777344 183.328125 197.671875 183.789062 195.449219 184.269531 C 199.195312 182.992188 203.476562 182.347656 208.222656 182.347656 C 214.367188 182.347656 219.074219 183.472656 219.121094 183.484375 L 219.351562 183.539062 L 219.410156 183.308594 L 231.257812 136.128906 L 231.023438 136.074219 C 230.144531 135.871094 228.964844 135.707031 227.921875 135.566406 L 227.644531 135.527344 L 228.238281 132.9375 C 231.125 133.078125 233.5 133.382812 234.265625 133.488281 L 221.425781 186.546875 " fill-opacity="1" fill-rule="nonzero"/><path fill="#c598af" d="M 138.308594 147.34375 L 149.695312 192.980469 C 161.679688 187.1875 171.257812 185.964844 177.199219 185.964844 C 177.835938 185.964844 178.425781 185.980469 178.96875 186.003906 C 176.894531 185.667969 174.746094 185.5 172.539062 185.5 C 161.328125 185.5 152.125 189.863281 152.03125 189.90625 L 151.769531 190.035156 L 139.511719 142.65625 L 139.75 142.597656 C 140.535156 142.414062 141.359375 142.246094 142.320312 142.078125 L 141.804688 139.949219 L 141.6875 139.457031 C 139.027344 139.617188 137.132812 139.917969 136.484375 140.03125 L 137.492188 144.078125 L 138.308594 147.34375 " fill-opacity="1" fill-rule="nonzero"/><path fill="#c598af" d="M 236.691406 147.34375 L 225.304688 192.980469 C 213.320312 187.1875 203.742188 185.964844 197.800781 185.964844 C 197.164062 185.964844 196.578125 185.980469 196.035156 186.003906 C 198.105469 185.667969 200.257812 185.5 202.460938 185.5 C 213.671875 185.5 222.875 189.863281 222.96875 189.90625 L 223.230469 190.035156 L 235.492188 142.65625 L 235.253906 142.597656 C 234.464844 142.414062 233.644531 142.246094 232.679688 142.078125 L 233.195312 139.949219 L 233.316406 139.457031 C 235.972656 139.617188 237.867188 139.917969 238.519531 140.03125 L 236.691406 147.34375 " fill-opacity="1" fill-rule="nonzero"/><g clip-path="url(#bccc4322b6)"><path fill="#fbb80f" d="M 132.414062 144.816406 L 146.308594 200.203125 C 147.074219 199.59375 147.894531 198.980469 148.746094 198.382812 C 157.914062 191.964844 168.597656 188.988281 174.121094 187.785156 C 161.808594 188.964844 151.425781 194.371094 148.320312 196.132812 L 148.046875 196.289062 L 135.441406 147.445312 L 135.679688 147.386719 C 136.289062 147.242188 136.925781 147.109375 137.71875 146.964844 L 137.078125 144.390625 L 137.050781 144.28125 C 134.691406 144.449219 133.019531 144.714844 132.414062 144.816406 " fill-opacity="1" fill-rule="nonzero"/></g><g clip-path="url(#1e6e6620d8)"><path fill="#fbb80f" d="M 242.589844 144.816406 L 228.695312 200.203125 C 227.925781 199.59375 227.105469 198.980469 226.253906 198.382812 C 217.089844 191.964844 206.40625 188.988281 200.882812 187.785156 C 213.195312 188.964844 223.578125 194.371094 226.683594 196.132812 L 226.953125 196.289062 L 239.558594 147.445312 L 239.324219 147.386719 C 238.714844 147.242188 238.078125 147.109375 237.28125 146.964844 L 237.925781 144.390625 L 237.949219 144.28125 C 240.308594 144.449219 241.984375 144.714844 242.589844 144.816406 " fill-opacity="1" fill-rule="nonzero"/></g><g fill="#fbee0f" fill-opacity="1"><g transform="translate(155.864741, 224.58837)"><g><path d="M 5.40625 0.125 C 5.1875 0.125 5.007812 0.0546875 4.875 -0.078125 C 4.738281 -0.210938 4.671875 -0.398438 4.671875 -0.640625 L 4.671875 -11.40625 L 0.625 -11.40625 C 0.414062 -11.40625 0.25 -11.460938 0.125 -11.578125 C 0.0078125 -11.703125 -0.046875 -11.859375 -0.046875 -12.046875 C -0.046875 -12.253906 0.0078125 -12.410156 0.125 -12.515625 C 0.25 -12.617188 0.414062 -12.671875 0.625 -12.671875 L 10.21875 -12.671875 C 10.425781 -12.671875 10.59375 -12.617188 10.71875 -12.515625 C 10.84375 -12.410156 10.90625 -12.253906 10.90625 -12.046875 C 10.90625 -11.847656 10.84375 -11.691406 10.71875 -11.578125 C 10.59375 -11.460938 10.425781 -11.40625 10.21875 -11.40625 L 6.171875 -11.40625 L 6.171875 -0.640625 C 6.171875 -0.398438 6.109375 -0.210938 5.984375 -0.078125 C 5.859375 0.0546875 5.664062 0.125 5.40625 0.125 Z M 5.40625 0.125 "/></g></g></g><g fill="#fbee0f" fill-opacity="1"><g transform="translate(166.692025, 224.58837)"><g><path d="M 4.125 0.15625 C 3.519531 0.15625 2.976562 0.0390625 2.5 -0.1875 C 2.03125 -0.425781 1.65625 -0.75 1.375 -1.15625 C 1.101562 -1.5625 0.96875 -2.015625 0.96875 -2.515625 C 0.96875 -3.160156 1.128906 -3.671875 1.453125 -4.046875 C 1.785156 -4.421875 2.332031 -4.6875 3.09375 -4.84375 C 3.863281 -5 4.90625 -5.078125 6.21875 -5.078125 L 7.03125 -5.078125 L 7.03125 -4.125 L 6.234375 -4.125 C 5.265625 -4.125 4.5 -4.078125 3.9375 -3.984375 C 3.382812 -3.890625 3 -3.734375 2.78125 -3.515625 C 2.5625 -3.304688 2.453125 -3.003906 2.453125 -2.609375 C 2.453125 -2.117188 2.617188 -1.71875 2.953125 -1.40625 C 3.296875 -1.09375 3.765625 -0.9375 4.359375 -0.9375 C 4.835938 -0.9375 5.257812 -1.050781 5.625 -1.28125 C 5.988281 -1.507812 6.273438 -1.820312 6.484375 -2.21875 C 6.691406 -2.613281 6.796875 -3.066406 6.796875 -3.578125 L 6.796875 -5.625 C 6.796875 -6.375 6.644531 -6.910156 6.34375 -7.234375 C 6.050781 -7.566406 5.5625 -7.734375 4.875 -7.734375 C 4.457031 -7.734375 4.035156 -7.675781 3.609375 -7.5625 C 3.191406 -7.457031 2.75 -7.285156 2.28125 -7.046875 C 2.113281 -6.960938 1.96875 -6.9375 1.84375 -6.96875 C 1.726562 -7 1.632812 -7.0625 1.5625 -7.15625 C 1.488281 -7.25 1.445312 -7.359375 1.4375 -7.484375 C 1.425781 -7.609375 1.453125 -7.726562 1.515625 -7.84375 C 1.585938 -7.96875 1.691406 -8.066406 1.828125 -8.140625 C 2.359375 -8.410156 2.878906 -8.601562 3.390625 -8.71875 C 3.910156 -8.84375 4.40625 -8.90625 4.875 -8.90625 C 5.625 -8.90625 6.242188 -8.78125 6.734375 -8.53125 C 7.234375 -8.289062 7.601562 -7.921875 7.84375 -7.421875 C 8.082031 -6.921875 8.203125 -6.28125 8.203125 -5.5 L 8.203125 -0.625 C 8.203125 -0.382812 8.144531 -0.195312 8.03125 -0.0625 C 7.914062 0.0625 7.75 0.125 7.53125 0.125 C 7.300781 0.125 7.125 0.0625 7 -0.0625 C 6.882812 -0.195312 6.828125 -0.382812 6.828125 -0.625 L 6.828125 -2.03125 L 7 -2.03125 C 6.90625 -1.570312 6.722656 -1.179688 6.453125 -0.859375 C 6.179688 -0.535156 5.847656 -0.285156 5.453125 -0.109375 C 5.054688 0.0664062 4.613281 0.15625 4.125 0.15625 Z M 4.125 0.15625 "/></g></g></g><g fill="#fbee0f" fill-opacity="1"><g transform="translate(176.224354, 224.58837)"><g><path d="M 1.53125 0 C 1.375 0 1.242188 -0.0351562 1.140625 -0.109375 C 1.046875 -0.179688 0.984375 -0.273438 0.953125 -0.390625 C 0.921875 -0.515625 0.921875 -0.644531 0.953125 -0.78125 C 0.984375 -0.925781 1.0625 -1.066406 1.1875 -1.203125 L 6.265625 -7.984375 L 6.265625 -7.609375 L 1.453125 -7.609375 C 1.265625 -7.609375 1.117188 -7.65625 1.015625 -7.75 C 0.910156 -7.851562 0.859375 -8 0.859375 -8.1875 C 0.859375 -8.363281 0.910156 -8.5 1.015625 -8.59375 C 1.117188 -8.6875 1.265625 -8.734375 1.453125 -8.734375 L 6.984375 -8.734375 C 7.160156 -8.734375 7.304688 -8.695312 7.421875 -8.625 C 7.535156 -8.5625 7.609375 -8.472656 7.640625 -8.359375 C 7.679688 -8.242188 7.6875 -8.113281 7.65625 -7.96875 C 7.625 -7.832031 7.554688 -7.703125 7.453125 -7.578125 L 2.28125 -0.71875 L 2.28125 -1.140625 L 7.34375 -1.140625 C 7.738281 -1.140625 7.9375 -0.953125 7.9375 -0.578125 C 7.9375 -0.398438 7.882812 -0.257812 7.78125 -0.15625 C 7.675781 -0.0507812 7.53125 0 7.34375 0 Z M 1.53125 0 "/></g></g></g><g fill="#fbee0f" fill-opacity="1"><g transform="translate(184.551649, 224.58837)"><g><path d="M 2.09375 0.125 C 1.84375 0.125 1.65625 0.0625 1.53125 -0.0625 C 1.414062 -0.195312 1.359375 -0.382812 1.359375 -0.625 L 1.359375 -12.0625 C 1.359375 -12.300781 1.414062 -12.484375 1.53125 -12.609375 C 1.65625 -12.742188 1.84375 -12.8125 2.09375 -12.8125 C 2.3125 -12.8125 2.488281 -12.742188 2.625 -12.609375 C 2.757812 -12.484375 2.828125 -12.300781 2.828125 -12.0625 L 2.828125 -4.859375 L 2.859375 -4.859375 L 6.546875 -8.375 C 6.710938 -8.53125 6.859375 -8.648438 6.984375 -8.734375 C 7.109375 -8.816406 7.28125 -8.859375 7.5 -8.859375 C 7.6875 -8.859375 7.832031 -8.804688 7.9375 -8.703125 C 8.050781 -8.609375 8.101562 -8.484375 8.09375 -8.328125 C 8.09375 -8.179688 8.019531 -8.023438 7.875 -7.859375 L 3.953125 -4.140625 L 3.953125 -4.921875 L 8.21875 -0.921875 C 8.382812 -0.753906 8.46875 -0.59375 8.46875 -0.4375 C 8.46875 -0.28125 8.410156 -0.144531 8.296875 -0.03125 C 8.179688 0.0703125 8.035156 0.125 7.859375 0.125 C 7.640625 0.125 7.460938 0.0820312 7.328125 0 C 7.203125 -0.09375 7.046875 -0.226562 6.859375 -0.40625 L 2.859375 -4.09375 L 2.828125 -4.09375 L 2.828125 -0.625 C 2.828125 -0.125 2.582031 0.125 2.09375 0.125 Z M 2.09375 0.125 "/></g></g></g><g fill="#fbee0f" fill-opacity="1"><g transform="translate(193.54441, 224.58837)"><g><path d="M 5.3125 0.15625 C 4.382812 0.15625 3.585938 -0.0234375 2.921875 -0.390625 C 2.253906 -0.753906 1.738281 -1.269531 1.375 -1.9375 C 1.007812 -2.613281 0.828125 -3.421875 0.828125 -4.359375 C 0.828125 -5.265625 1.003906 -6.054688 1.359375 -6.734375 C 1.722656 -7.410156 2.21875 -7.941406 2.84375 -8.328125 C 3.476562 -8.710938 4.207031 -8.90625 5.03125 -8.90625 C 5.625 -8.90625 6.148438 -8.804688 6.609375 -8.609375 C 7.078125 -8.410156 7.476562 -8.125 7.8125 -7.75 C 8.144531 -7.375 8.394531 -6.921875 8.5625 -6.390625 C 8.738281 -5.867188 8.828125 -5.28125 8.828125 -4.625 C 8.828125 -4.425781 8.769531 -4.28125 8.65625 -4.1875 C 8.550781 -4.101562 8.398438 -4.0625 8.203125 -4.0625 L 1.9375 -4.0625 L 1.9375 -5.015625 L 7.859375 -5.015625 L 7.578125 -4.78125 C 7.578125 -5.425781 7.476562 -5.972656 7.28125 -6.421875 C 7.09375 -6.878906 6.816406 -7.226562 6.453125 -7.46875 C 6.085938 -7.707031 5.628906 -7.828125 5.078125 -7.828125 C 4.460938 -7.828125 3.941406 -7.6875 3.515625 -7.40625 C 3.085938 -7.125 2.765625 -6.734375 2.546875 -6.234375 C 2.335938 -5.734375 2.234375 -5.15625 2.234375 -4.5 L 2.234375 -4.390625 C 2.234375 -3.285156 2.5 -2.441406 3.03125 -1.859375 C 3.5625 -1.285156 4.320312 -1 5.3125 -1 C 5.71875 -1 6.117188 -1.050781 6.515625 -1.15625 C 6.921875 -1.269531 7.316406 -1.453125 7.703125 -1.703125 C 7.867188 -1.816406 8.019531 -1.867188 8.15625 -1.859375 C 8.289062 -1.859375 8.398438 -1.816406 8.484375 -1.734375 C 8.566406 -1.660156 8.625 -1.566406 8.65625 -1.453125 C 8.6875 -1.335938 8.675781 -1.210938 8.625 -1.078125 C 8.570312 -0.941406 8.46875 -0.828125 8.3125 -0.734375 C 7.914062 -0.453125 7.445312 -0.234375 6.90625 -0.078125 C 6.363281 0.078125 5.832031 0.15625 5.3125 0.15625 Z M 5.3125 0.15625 "/></g></g></g><g fill="#fbee0f" fill-opacity="1"><g transform="translate(203.112705, 224.58837)"><g><path d="M 5.3125 0.15625 C 4.382812 0.15625 3.585938 -0.0234375 2.921875 -0.390625 C 2.253906 -0.753906 1.738281 -1.269531 1.375 -1.9375 C 1.007812 -2.613281 0.828125 -3.421875 0.828125 -4.359375 C 0.828125 -5.265625 1.003906 -6.054688 1.359375 -6.734375 C 1.722656 -7.410156 2.21875 -7.941406 2.84375 -8.328125 C 3.476562 -8.710938 4.207031 -8.90625 5.03125 -8.90625 C 5.625 -8.90625 6.148438 -8.804688 6.609375 -8.609375 C 7.078125 -8.410156 7.476562 -8.125 7.8125 -7.75 C 8.144531 -7.375 8.394531 -6.921875 8.5625 -6.390625 C 8.738281 -5.867188 8.828125 -5.28125 8.828125 -4.625 C 8.828125 -4.425781 8.769531 -4.28125 8.65625 -4.1875 C 8.550781 -4.101562 8.398438 -4.0625 8.203125 -4.0625 L 1.9375 -4.0625 L 1.9375 -5.015625 L 7.859375 -5.015625 L 7.578125 -4.78125 C 7.578125 -5.425781 7.476562 -5.972656 7.28125 -6.421875 C 7.09375 -6.878906 6.816406 -7.226562 6.453125 -7.46875 C 6.085938 -7.707031 5.628906 -7.828125 5.078125 -7.828125 C 4.460938 -7.828125 3.941406 -7.6875 3.515625 -7.40625 C 3.085938 -7.125 2.765625 -6.734375 2.546875 -6.234375 C 2.335938 -5.734375 2.234375 -5.15625 2.234375 -4.5 L 2.234375 -4.390625 C 2.234375 -3.285156 2.5 -2.441406 3.03125 -1.859375 C 3.5625 -1.285156 4.320312 -1 5.3125 -1 C 5.71875 -1 6.117188 -1.050781 6.515625 -1.15625 C 6.921875 -1.269531 7.316406 -1.453125 7.703125 -1.703125 C 7.867188 -1.816406 8.019531 -1.867188 8.15625 -1.859375 C 8.289062 -1.859375 8.398438 -1.816406 8.484375 -1.734375 C 8.566406 -1.660156 8.625 -1.566406 8.65625 -1.453125 C 8.6875 -1.335938 8.675781 -1.210938 8.625 -1.078125 C 8.570312 -0.941406 8.46875 -0.828125 8.3125 -0.734375 C 7.914062 -0.453125 7.445312 -0.234375 6.90625 -0.078125 C 6.363281 0.078125 5.832031 0.15625 5.3125 0.15625 Z M 5.3125 0.15625 "/></g></g></g><g fill="#fbee0f" fill-opacity="1"><g transform="translate(212.681, 224.58837)"><g><path d="M 2.109375 0.125 C 1.867188 0.125 1.679688 0.0625 1.546875 -0.0625 C 1.421875 -0.195312 1.359375 -0.382812 1.359375 -0.625 L 1.359375 -8.125 C 1.359375 -8.363281 1.414062 -8.546875 1.53125 -8.671875 C 1.65625 -8.796875 1.832031 -8.859375 2.0625 -8.859375 C 2.289062 -8.859375 2.46875 -8.796875 2.59375 -8.671875 C 2.71875 -8.546875 2.78125 -8.363281 2.78125 -8.125 L 2.78125 -6.671875 L 2.609375 -6.671875 C 2.796875 -7.378906 3.160156 -7.925781 3.703125 -8.3125 C 4.242188 -8.695312 4.910156 -8.898438 5.703125 -8.921875 C 5.878906 -8.929688 6.019531 -8.890625 6.125 -8.796875 C 6.238281 -8.710938 6.300781 -8.5625 6.3125 -8.34375 C 6.320312 -8.132812 6.269531 -7.96875 6.15625 -7.84375 C 6.050781 -7.726562 5.890625 -7.660156 5.671875 -7.640625 L 5.375 -7.609375 C 4.5625 -7.535156 3.9375 -7.273438 3.5 -6.828125 C 3.0625 -6.378906 2.84375 -5.765625 2.84375 -4.984375 L 2.84375 -0.625 C 2.84375 -0.382812 2.78125 -0.195312 2.65625 -0.0625 C 2.53125 0.0625 2.347656 0.125 2.109375 0.125 Z M 2.109375 0.125 "/></g></g></g></svg>